<svg xmlns="http://www.w3.org/2000/svg" width="32" height="32" viewBox="0 0 32 32">
  <metadata><?xpacket begin="﻿" id="W5M0MpCehiHzreSzNTczkc9d"?>
<x:xmpmeta xmlns:x="adobe:ns:meta/" x:xmptk="Adobe XMP Core 5.6-c142 79.160924, 2017/07/13-01:06:39        ">
   <rdf:RDF xmlns:rdf="http://www.w3.org/1999/02/22-rdf-syntax-ns#">
      <rdf:Description rdf:about=""/>
   </rdf:RDF>
</x:xmpmeta>
                                                                                                    
                                                                                                    
                                                                                                    
                                                                                                    
                                                                                                    
                                                                                                    
                                                                                                    
                                                                                                    
                                                                                                    
                                                                                                    
                                                                                                    
                                                                                                    
                                                                                                    
                                                                                                    
                                                                                                    
                                                                                                    
                                                                                                    
                                                                                                    
                                                                                                    
                                                                                                    
                           
<?xpacket end="w"?></metadata>
<defs>
    <style>
      .cls-1 {
        fill: #666d89;
        fill-rule: evenodd;
      }
    </style>
  </defs>
  <path id="pen" class="cls-1" d="M84.4,931.58A8.546,8.546,0,0,0,78.449,929a6.541,6.541,0,0,0-4.669,1.877l-4.867,4.9c-0.015.014-.032,0.024-0.047,0.038s-0.013.019-.021,0.027l0,0-10.33,10.408a4.02,4.02,0,0,0-1.013,1.705l-2.349,8.508A6.849,6.849,0,0,0,55,957.5a3.5,3.5,0,0,0,3.5,3.5,7.142,7.142,0,0,0,1.157-.187l8.478-2.229a4.021,4.021,0,0,0,1.705-1.016l15.263-15.382C87.884,939.406,87.571,934.75,84.4,931.58ZM71.015,952.8a8.148,8.148,0,0,0-.719-2.628l9.454-9.453a4.876,4.876,0,0,1-.986,5c-0.008.008-.017,0.012-0.025,0.02l0.013,0.013-7.728,7.789C71.025,953.293,71.037,953.049,71.015,952.8Zm-1.221-3.54a9.044,9.044,0,0,0-1.322-1.728,8.953,8.953,0,0,0-2.044-1.493L75.96,936.5a6.9,6.9,0,0,1,3.378,3.208Zm-4.307-3.693a7.979,7.979,0,0,0-2.868-.6l7.7-7.762a4.8,4.8,0,0,1,4.588-1.061Zm-6.318,13.31a4.739,4.739,0,0,1-.679.127A1.5,1.5,0,0,1,57,957.5a5.1,5.1,0,0,1,.1-0.563l1.053-3.814a4.74,4.74,0,0,1,4.733,4.774Zm4.706-1.236A5.584,5.584,0,0,0,62.2,953.8a5.692,5.692,0,0,0-3.766-1.7l1-3.608a1.975,1.975,0,0,1,.391-0.684c2.006-1.436,5.091-1.012,7.234,1.133,2.267,2.266,2.617,5.586.871,7.568a2.13,2.13,0,0,1-.359.157Zm19.818-16.864-1.685,1.7c0-.226.027-0.443,0.007-0.674a8.834,8.834,0,0,0-8.472-7.84l1.657-1.67A4.547,4.547,0,0,1,78.449,931a6.911,6.911,0,0,1,6.539,6.163A4.583,4.583,0,0,1,83.692,940.773Z" transform="translate(-55 -929)"/>
</svg>
