<svg xmlns="http://www.w3.org/2000/svg" width="32" height="31" viewBox="0 0 32 31">
  <metadata><?xpacket begin="﻿" id="W5M0MpCehiHzreSzNTczkc9d"?>
<x:xmpmeta xmlns:x="adobe:ns:meta/" x:xmptk="Adobe XMP Core 5.6-c142 79.160924, 2017/07/13-01:06:39        ">
   <rdf:RDF xmlns:rdf="http://www.w3.org/1999/02/22-rdf-syntax-ns#">
      <rdf:Description rdf:about=""/>
   </rdf:RDF>
</x:xmpmeta>
                                                                                                    
                                                                                                    
                                                                                                    
                                                                                                    
                                                                                                    
                                                                                                    
                                                                                                    
                                                                                                    
                                                                                                    
                                                                                                    
                                                                                                    
                                                                                                    
                                                                                                    
                                                                                                    
                                                                                                    
                                                                                                    
                                                                                                    
                                                                                                    
                                                                                                    
                                                                                                    
                           
<?xpacket end="w"?></metadata>
<defs>
    <style>
      .cls-1 {
        fill: #666d89;
        fill-rule: evenodd;
      }
    </style>
  </defs>
  <path id="star" class="cls-1" d="M725.881,1063.56a2.288,2.288,0,0,0-1.843-1.51l-8.326-1.24-3.62-7.52a2.341,2.341,0,0,0-4.184,0l-3.619,7.52-8.327,1.24a2.282,2.282,0,0,0-1.842,1.51,2.194,2.194,0,0,0,.537,2.28l6.1,6.09-1.415,8.46a2.222,2.222,0,0,0,.948,2.2,2.373,2.373,0,0,0,1.331.41,2.335,2.335,0,0,0,1.118-.28l7.259-3.91,7.26,3.91a2.331,2.331,0,0,0,1.117.28,2.38,2.38,0,0,0,1.332-.41,2.225,2.225,0,0,0,.948-2.2l-1.416-8.46,6.1-6.09A2.2,2.2,0,0,0,725.881,1063.56Zm-8.293,6.8a2.22,2.22,0,0,0-.626,1.94l1.415,8.45-7.259-3.91a2.37,2.37,0,0,0-2.235,0l-7.26,3.91,1.416-8.45a2.22,2.22,0,0,0-.626-1.94l-6.1-6.09,8.326-1.24a2.3,2.3,0,0,0,1.744-1.27l3.619-7.51,3.62,7.51a2.3,2.3,0,0,0,1.742,1.27l8.327,1.24Z" transform="translate(-694 -1052)"/>
</svg>
